<svg width="30" height="30" viewBox="0 0 30 30" fill="none" xmlns="http://www.w3.org/2000/svg">
<g clip-path="url(#clip0_78_434)">
<path d="M8.53746 -0.00019455C8.70197 -0.00114441 8.86505 0.030386 9.01734 0.0925903C9.16964 0.154797 9.30816 0.246454 9.42496 0.362307L19.6375 10.5748C20.2195 11.1554 20.6813 11.8451 20.9964 12.6044C21.3114 13.3637 21.4736 14.1777 21.4736 14.9998C21.4736 15.8219 21.3114 16.6359 20.9964 17.3952C20.6813 18.1545 20.2195 18.8442 19.6375 19.4248L9.42496 29.6373C9.30841 29.7538 9.17005 29.8463 9.01777 29.9093C8.86549 29.9724 8.70228 30.0049 8.53746 30.0049C8.37264 30.0049 8.20943 29.9724 8.05715 29.9093C7.90487 29.8463 7.76651 29.7538 7.64996 29.6373C7.53341 29.5207 7.44096 29.3824 7.37789 29.2301C7.31481 29.0778 7.28235 28.9146 7.28235 28.7498C7.28235 28.5849 7.31481 28.4217 7.37789 28.2695C7.44096 28.1172 7.53341 27.9788 7.64996 27.8623L17.8625 17.6498C18.5647 16.9467 18.9592 15.9935 18.9592 14.9998C18.9592 14.006 18.5647 13.0529 17.8625 12.3498L7.64996 2.1373C7.5328 2.0211 7.43981 1.88285 7.37634 1.73052C7.31288 1.5782 7.28021 1.41482 7.28021 1.2498C7.28021 1.08479 7.31288 0.921408 7.37634 0.769085C7.43981 0.61676 7.5328 0.47851 7.64996 0.362307C7.76676 0.246454 7.90528 0.154797 8.05758 0.0925903C8.20987 0.030386 8.37295 -0.00114441 8.53746 -0.00019455Z" fill="#374957"/>
</g>
<defs>
<clipPath id="clip0_78_434">
<rect width="30" height="30" fill="white" transform="matrix(-1 0 0 -1 30 30)"/>
</clipPath>
</defs>
</svg>
