<svg width="24" height="50" viewBox="0 0 24 50" fill="none" xmlns="http://www.w3.org/2000/svg">
<path d="M21.7706 49.9997C21.4964 50.0013 21.2246 49.9487 20.9708 49.845C20.717 49.7414 20.4861 49.5886 20.2914 49.3955L3.27061 32.3747C2.30055 31.4071 1.5309 30.2576 1.00577 28.9921C0.480636 27.7265 0.210327 26.3699 0.210327 24.9997C0.210327 23.6296 0.480636 22.2729 1.00577 21.0073C1.5309 19.7418 2.30055 18.5923 3.27061 17.6247L20.2914 0.603901C20.4857 0.409654 20.7163 0.25557 20.9701 0.150444C21.2239 0.0453184 21.4959 -0.00878906 21.7706 -0.00878906C22.0453 -0.00878906 22.3173 0.0453184 22.5711 0.150444C22.8249 0.255569 23.0555 0.409654 23.2498 0.603901C23.444 0.798148 23.5981 1.02875 23.7032 1.28255C23.8084 1.53634 23.8625 1.80836 23.8625 2.08307C23.8625 2.35777 23.8084 2.62979 23.7032 2.88358C23.5981 3.13738 23.444 3.36798 23.2498 3.56223L6.22895 20.583C5.05853 21.7549 4.40111 23.3435 4.40111 24.9997C4.40111 26.656 5.05853 28.2445 6.22895 29.4164L23.2498 46.4372C23.445 46.6309 23.6 46.8613 23.7058 47.1151C23.8116 47.369 23.866 47.6413 23.866 47.9163C23.866 48.1914 23.8116 48.4637 23.7058 48.7175C23.6 48.9714 23.445 49.2018 23.2498 49.3955C23.0551 49.5886 22.8242 49.7414 22.5704 49.845C22.3166 49.9487 22.0448 50.0013 21.7706 49.9997Z" fill="#374957"/>
</svg>
