<svg width="30" height="30" viewBox="0 0 30 30" fill="none" xmlns="http://www.w3.org/2000/svg">
<g clip-path="url(#clip0_78_433)">
<path d="M21.4625 30.0002C21.298 30.0011 21.135 29.9696 20.9827 29.9074C20.8304 29.8452 20.6918 29.7535 20.575 29.6377L10.3625 19.4252C9.7805 18.8446 9.31871 18.1549 9.00363 17.3956C8.68855 16.6363 8.52637 15.8223 8.52637 15.0002C8.52637 14.1781 8.68855 13.3641 9.00363 12.6048C9.31871 11.8455 9.7805 11.1558 10.3625 10.5752L20.575 0.362731C20.6916 0.246183 20.83 0.153732 20.9822 0.090657C21.1345 0.0275816 21.2977 -0.00488281 21.4625 -0.00488281C21.6274 -0.00488281 21.7906 0.0275816 21.9429 0.090657C22.0951 0.153732 22.2335 0.246183 22.35 0.362731C22.4666 0.479279 22.559 0.617642 22.6221 0.769919C22.6852 0.922197 22.7177 1.08541 22.7177 1.25023C22.7177 1.41505 22.6852 1.57826 22.6221 1.73054C22.559 1.88282 22.4666 2.02118 22.35 2.13773L12.1375 12.3502C11.4353 13.0533 11.0408 14.0065 11.0408 15.0002C11.0408 15.994 11.4353 16.9471 12.1375 17.6502L22.35 27.8627C22.4672 27.9789 22.5602 28.1172 22.6237 28.2695C22.6871 28.4218 22.7198 28.5852 22.7198 28.7502C22.7198 28.9152 22.6871 29.0786 22.6237 29.2309C22.5602 29.3832 22.4672 29.5215 22.35 29.6377C22.2332 29.7535 22.0947 29.8452 21.9424 29.9074C21.7901 29.9696 21.627 30.0011 21.4625 30.0002Z" fill="#374957"/>
</g>
<defs>
<clipPath id="clip0_78_433">
<rect width="30" height="30" fill="white"/>
</clipPath>
</defs>
</svg>
