<svg width="50" height="50" viewBox="0 0 50 50" fill="none" xmlns="http://www.w3.org/2000/svg">
<g clip-path="url(#clip0_54_1151)">
<path d="M14.2295 0.000324249C14.5037 -0.00125885 14.7755 0.0512924 15.0293 0.154968C15.2831 0.258644 15.514 0.411407 15.7087 0.604492L32.7295 17.6253C33.6996 18.5929 34.4692 19.7424 34.9944 21.0079C35.5195 22.2735 35.7898 23.6301 35.7898 25.0003C35.7898 26.3704 35.5195 27.7271 34.9944 28.9927C34.4692 30.2582 33.6996 31.4077 32.7295 32.3753L15.7087 49.3961C15.5144 49.5903 15.2838 49.7444 15.03 49.8496C14.7762 49.9547 14.5042 50.0088 14.2295 50.0088C13.9548 50.0088 13.6828 49.9547 13.429 49.8496C13.1752 49.7444 12.9446 49.5903 12.7503 49.3961C12.5561 49.2019 12.402 48.9712 12.2969 48.7175C12.1918 48.4637 12.1377 48.1916 12.1377 47.9169C12.1377 47.6422 12.1918 47.3702 12.2969 47.1164C12.402 46.8626 12.5561 46.632 12.7503 46.4378L29.7712 29.417C30.9416 28.2451 31.599 26.6565 31.599 25.0003C31.599 23.344 30.9416 21.7555 29.7712 20.5836L12.7503 3.56282C12.5551 3.36914 12.4001 3.13873 12.2943 2.88486C12.1885 2.63098 12.1341 2.35868 12.1341 2.08366C12.1341 1.80863 12.1885 1.53633 12.2943 1.28246C12.4001 1.02858 12.5551 0.798164 12.7503 0.604492C12.945 0.411407 13.1759 0.258644 13.4297 0.154968C13.6835 0.0512924 13.9553 -0.00125885 14.2295 0.000324249Z" fill="#374957"/>
</g>
<defs>
<clipPath id="clip0_54_1151">
<rect width="50" height="50" fill="white" transform="matrix(-1 0 0 -1 50 50)"/>
</clipPath>
</defs>
</svg>
