<svg width="58" height="58" viewBox="0 0 58 58" fill="none" xmlns="http://www.w3.org/2000/svg">
<path d="M29 4.83301C22.5906 4.83301 16.4438 7.37913 11.9116 11.9113C7.3795 16.4434 4.83337 22.5903 4.83337 28.9997C4.83337 35.4091 7.3795 41.556 11.9116 46.0881C16.4438 50.6202 22.5906 53.1663 29 53.1663C35.4094 53.1663 41.5563 50.6202 46.0885 46.0881C50.6206 41.556 53.1667 35.4091 53.1667 28.9997C53.1667 22.5903 50.6206 16.4434 46.0885 11.9113C41.5563 7.37913 35.4094 4.83301 29 4.83301Z" fill="#29B6F6"/>
<path d="M41.023 18.1253L36.4965 41.2359C36.4965 41.2359 36.302 42.292 34.9922 42.292C34.2962 42.292 33.9373 41.9609 33.9373 41.9609L24.1329 33.8252L19.3358 31.4073L13.1793 29.77C13.1793 29.77 12.0834 29.4535 12.0834 28.5472C12.0834 27.792 13.2107 27.4319 13.2107 27.4319L38.9676 17.1997C38.9676 17.1997 39.7542 16.9158 40.3282 16.917C40.681 16.917 41.0834 17.068 41.0834 17.5212C41.0834 17.8232 41.023 18.1253 41.023 18.1253Z" fill="white"/>
<path d="M27.7917 36.86L23.6519 40.9369C23.6519 40.9369 23.4719 41.0759 23.2314 41.0819C23.148 41.0844 23.0586 41.0711 22.9668 41.03L24.1316 33.8223L27.7917 36.86Z" fill="#B0BEC5"/>
<path d="M36.1256 21.9867C35.9214 21.7209 35.5444 21.6725 35.2785 21.8743L19.3334 31.4165C19.3334 31.4165 21.8781 38.536 22.266 39.7685C22.6551 41.0022 22.9668 41.0312 22.9668 41.0312L24.1317 33.8235L36.012 22.8325C36.2778 22.6307 36.3274 22.2525 36.1256 21.9867Z" fill="#CFD8DC"/>
</svg>
