<svg width="59" height="59" viewBox="0 0 59 59" fill="none" xmlns="http://www.w3.org/2000/svg">
<path fill-rule="evenodd" clip-rule="evenodd" d="M5.98364 53.2263L9.29502 41.1374C7.25214 37.5999 6.17785 33.5854 6.17908 29.4739C6.18523 16.6106 16.6528 6.14551 29.5173 6.14551C35.7602 6.14797 41.6184 8.57803 46.025 12.987C50.4303 17.3973 52.8567 23.258 52.8542 29.4923C52.8493 42.3555 42.3793 52.8219 29.5173 52.8219H29.5074C25.6024 52.8207 21.7637 51.841 18.3552 49.9813L5.98364 53.2263Z" fill="white"/>
<path fill-rule="evenodd" clip-rule="evenodd" d="M5.98355 53.8412C5.8213 53.8412 5.66397 53.7773 5.5472 53.6593C5.39355 53.5032 5.33332 53.2758 5.39109 53.0656L8.63487 41.2213C6.62395 37.6494 5.56318 33.5931 5.56564 29.4754C5.57055 16.2717 16.3147 5.53125 29.5172 5.53125C35.9211 5.53371 41.9379 8.02769 46.46 12.5535C50.9821 17.0805 53.4712 23.096 53.4687 29.4926C53.4638 42.6951 42.7184 53.4368 29.5172 53.4368C25.5974 53.4356 21.7193 52.4682 18.2777 50.638L6.13966 53.8203C6.08803 53.835 6.03641 53.8412 5.98355 53.8412Z" fill="white"/>
<path fill-rule="evenodd" clip-rule="evenodd" d="M29.5172 6.14616C35.7601 6.14862 41.6184 8.57868 46.0249 12.9877C50.4302 17.398 52.8566 23.2586 52.8542 29.4929C52.8493 42.3562 42.3792 52.8225 29.5172 52.8225H29.5074C25.6023 52.8213 21.7636 51.8417 18.3551 49.9819L5.98358 53.2269L9.29495 41.1381C7.25208 37.6005 6.17779 33.5861 6.17902 29.4745C6.18516 16.6113 16.6527 6.14616 29.5172 6.14616ZM29.5172 4.91699C15.9767 4.91699 4.956 15.9328 4.94985 29.4745C4.94862 33.6131 5.99341 37.6915 7.97483 41.3016L4.79743 52.9037C4.68189 53.3277 4.79989 53.7801 5.10964 54.0923C5.34318 54.3283 5.65908 54.4573 5.98358 54.4573C6.08806 54.4573 6.19254 54.4438 6.29579 54.4168L18.2027 51.2947C21.6788 53.0991 25.5753 54.0517 29.5074 54.0529C43.0577 54.0529 54.0784 43.0359 54.0846 29.4942C54.087 22.9317 51.534 16.7612 46.8964 12.1199C42.2563 7.47735 36.0846 4.91945 29.5172 4.91699Z" fill="#CFD8DC"/>
<path fill-rule="evenodd" clip-rule="evenodd" d="M43.2372 15.773C39.5743 12.1077 34.7055 10.0881 29.5234 10.0869C18.8247 10.0869 10.1234 18.7845 10.1185 29.4758C10.1173 33.1399 11.1424 36.707 13.0845 39.7959L13.5467 40.5297L11.5862 47.6847L18.928 45.7598L19.6372 46.1802C22.6142 47.9477 26.0289 48.8819 29.5099 48.8831H29.5172C40.2085 48.8831 48.9098 40.1843 48.9135 29.4918C48.9147 24.3108 46.9001 19.4384 43.2372 15.773Z" fill="#40C351"/>
<path fill-rule="evenodd" clip-rule="evenodd" d="M23.6836 19.7217C23.2472 18.7506 22.7875 18.731 22.3708 18.7137C22.0304 18.699 21.6419 18.7002 21.2535 18.7002C20.8651 18.7002 20.2333 18.8465 19.6986 19.4303C19.1639 20.0142 17.657 21.4241 17.657 24.2929C17.657 27.1618 19.7466 29.9348 20.0379 30.3232C20.3292 30.7116 24.072 36.7874 29.999 39.1253C34.9243 41.0674 35.9273 40.6814 36.9967 40.5843C38.0661 40.4872 40.447 39.1744 40.9325 37.8125C41.418 36.4506 41.418 35.2841 41.273 35.0408C41.1267 34.7974 40.7383 34.6523 40.1556 34.3598C39.573 34.0673 36.7054 32.6574 36.1707 32.4632C35.636 32.269 35.2476 32.1719 34.8579 32.7557C34.4695 33.3384 33.3522 34.6523 33.0117 35.0408C32.6713 35.4304 32.3308 35.4796 31.7481 35.187C31.1655 34.8945 29.2874 34.2799 27.0589 32.2936C25.3258 30.7485 24.1556 28.8396 23.8151 28.2558C23.4746 27.6731 23.7782 27.3572 24.0708 27.0659C24.3326 26.8041 24.6534 26.385 24.9459 26.0445C25.2373 25.704 25.3344 25.4606 25.5286 25.0722C25.7228 24.6826 25.6257 24.3421 25.4794 24.0508C25.3356 23.7582 24.2023 20.8746 23.6836 19.7217Z" fill="white"/>
</svg>
